<svg width="164" height="62" viewBox="0 0 164 62" fill="none" xmlns="http://www.w3.org/2000/svg">
<path d="M16.2773 53V40.5371C16.2773 38.9668 15.9199 37.7949 15.2051 37.0215C14.4902 36.248 13.3711 35.8613 11.8477 35.8613C9.82031 35.8613 8.33789 36.4121 7.40039 37.5137C6.47461 38.6152 6.01172 40.4199 6.01172 42.9277V53H3.09375V25.6484H6.01172V33.9277C6.01172 34.9238 5.96484 35.75 5.87109 36.4062H6.04688C6.62109 35.4805 7.43555 34.7539 8.49023 34.2266C9.55664 33.6875 10.7695 33.418 12.1289 33.418C14.4844 33.418 16.248 33.9805 17.4199 35.1055C18.6035 36.2188 19.1953 37.9941 19.1953 40.4316V53H16.2773ZM49.7637 53V40.4668C49.7637 38.9316 49.4355 37.7832 48.7793 37.0215C48.123 36.248 47.1035 35.8613 45.7207 35.8613C43.9043 35.8613 42.5625 36.3828 41.6953 37.4258C40.8281 38.4688 40.3945 40.0742 40.3945 42.2422V53H37.4766V40.4668C37.4766 38.9316 37.1484 37.7832 36.4922 37.0215C35.8359 36.248 34.8105 35.8613 33.416 35.8613C31.5879 35.8613 30.2461 36.4121 29.3906 37.5137C28.5469 38.6035 28.125 40.3965 28.125 42.8926V53H25.207V33.7344H27.5801L28.0547 36.3711H28.1953C28.7461 35.4336 29.5195 34.7012 30.5156 34.1738C31.5234 33.6465 32.6484 33.3828 33.8906 33.3828C36.9023 33.3828 38.8711 34.4727 39.7969 36.6523H39.9375C40.5117 35.6445 41.3438 34.8477 42.4336 34.2617C43.5234 33.6758 44.7656 33.3828 46.1602 33.3828C48.3398 33.3828 49.9688 33.9453 51.0469 35.0703C52.1367 36.1836 52.6816 37.9707 52.6816 40.4316V53H49.7637ZM75.4453 34.7891C75.4453 37.3906 74.5547 39.3945 72.7734 40.8008C71.0039 42.1953 68.4668 42.8926 65.1621 42.8926H62.1387V53H59.1504V27.3008H65.8125C72.2344 27.3008 75.4453 29.7969 75.4453 34.7891ZM62.1387 40.3262H64.8281C67.4766 40.3262 69.3926 39.8984 70.5762 39.043C71.7598 38.1875 72.3516 36.8164 72.3516 34.9297C72.3516 33.2305 71.7949 31.9648 70.6816 31.1328C69.5684 30.3008 67.834 29.8848 65.4785 29.8848H62.1387V40.3262ZM83.3203 53H80.4023V25.6484H83.3203V53ZM101.355 53L100.775 50.2578H100.635C99.6738 51.4648 98.7129 52.2852 97.752 52.7188C96.8027 53.1406 95.6133 53.3516 94.1836 53.3516C92.2734 53.3516 90.7734 52.8594 89.6836 51.875C88.6055 50.8906 88.0664 49.4902 88.0664 47.6738C88.0664 43.7832 91.1777 41.7441 97.4004 41.5566L100.67 41.4512V40.2559C100.67 38.7441 100.342 37.6309 99.6855 36.916C99.041 36.1895 98.0039 35.8262 96.5742 35.8262C94.9688 35.8262 93.1523 36.3184 91.125 37.3027L90.2285 35.0703C91.1777 34.5547 92.2148 34.1504 93.3398 33.8574C94.4766 33.5645 95.6133 33.418 96.75 33.418C99.0469 33.418 100.746 33.9277 101.848 34.9473C102.961 35.9668 103.518 37.6016 103.518 39.8516V53H101.355ZM94.7637 50.9434C96.5801 50.9434 98.0039 50.4453 99.0352 49.4492C100.078 48.4531 100.6 47.0586 100.6 45.2656V43.5254L97.6816 43.6484C95.3613 43.7305 93.6855 44.0938 92.6543 44.7383C91.6348 45.3711 91.125 46.3613 91.125 47.709C91.125 48.7637 91.4414 49.5664 92.0742 50.1172C92.7188 50.668 93.6152 50.9434 94.7637 50.9434ZM106.488 33.7344H109.617L113.836 44.7207C114.762 47.2285 115.336 49.0391 115.559 50.1523H115.699C115.852 49.5547 116.168 48.5352 116.648 47.0938C117.141 45.6406 118.734 41.1875 121.43 33.7344H124.559L116.279 55.6719C115.459 57.8398 114.498 59.375 113.396 60.2773C112.307 61.1914 110.965 61.6484 109.371 61.6484C108.48 61.6484 107.602 61.5488 106.734 61.3496V59.0117C107.379 59.1523 108.1 59.2227 108.896 59.2227C110.9 59.2227 112.33 58.0977 113.186 55.8477L114.258 53.1055L106.488 33.7344ZM135.826 53.3516C132.979 53.3516 130.729 52.4844 129.076 50.75C127.436 49.0156 126.615 46.6074 126.615 43.5254C126.615 40.4199 127.377 37.9531 128.9 36.125C130.436 34.2969 132.492 33.3828 135.07 33.3828C137.484 33.3828 139.395 34.1797 140.801 35.7734C142.207 37.3555 142.91 39.4473 142.91 42.0488V43.8945H129.639C129.697 46.1562 130.266 47.873 131.344 49.0449C132.434 50.2168 133.963 50.8027 135.932 50.8027C138.006 50.8027 140.057 50.3691 142.084 49.502V52.1035C141.053 52.5488 140.074 52.8652 139.148 53.0527C138.234 53.252 137.127 53.3516 135.826 53.3516ZM135.035 35.8262C133.488 35.8262 132.252 36.3301 131.326 37.3379C130.412 38.3457 129.873 39.7402 129.709 41.5215H139.781C139.781 39.6816 139.371 38.2754 138.551 37.3027C137.73 36.3184 136.559 35.8262 135.035 35.8262ZM156.691 33.3828C157.547 33.3828 158.314 33.4531 158.994 33.5938L158.59 36.3008C157.793 36.125 157.09 36.0371 156.48 36.0371C154.922 36.0371 153.586 36.6699 152.473 37.9355C151.371 39.2012 150.82 40.7773 150.82 42.6641V53H147.902V33.7344H150.311L150.645 37.3027H150.785C151.5 36.0488 152.361 35.082 153.369 34.4023C154.377 33.7227 155.484 33.3828 156.691 33.3828Z" fill="black"/>
<path d="M54.9587 23.0251L50.327 25.8795C49.9736 26.0986 49.5551 26.2081 49.0714 26.2081C48.5878 26.2081 48.1693 26.0986 47.8159 25.8795L33 16.6936L18.1842 25.8795C17.8307 26.0986 17.4122 26.2081 16.9286 26.2081C16.4449 26.2081 16.0264 26.0986 15.673 25.8795L11.0413 23.0251C10.6879 22.806 10.5112 22.5436 10.5112 22.238C10.5112 21.9324 10.6879 21.67 11.0413 21.4509L31.7444 8.63226C32.0978 8.41313 32.5164 8.30357 33 8.30357C33.4836 8.30357 33.9022 8.41313 34.2556 8.63226L54.9587 21.4509C55.3121 21.67 55.4888 21.9324 55.4888 22.238C55.4888 22.5436 55.3121 22.806 54.9587 23.0251Z" fill="black"/>
<path d="M54.9587 23.0251L50.327 25.8795C49.9736 26.0986 49.5551 26.2081 49.0714 26.2081C48.5878 26.2081 48.1693 26.0986 47.8159 25.8795L33 16.6936L18.1842 25.8795C17.8307 26.0986 17.4122 26.2081 16.9286 26.2081C16.4449 26.2081 16.0264 26.0986 15.673 25.8795L11.0413 23.0251C10.6879 22.806 10.5112 22.5436 10.5112 22.238C10.5112 21.9324 10.6879 21.67 11.0413 21.4509L31.7444 8.63226C32.0978 8.41313 32.5164 8.30357 33 8.30357C33.4836 8.30357 33.9022 8.41313 34.2556 8.63226L54.9587 21.4509C55.3121 21.67 55.4888 21.9324 55.4888 22.238C55.4888 22.5436 55.3121 22.806 54.9587 23.0251Z" stroke="black"/>
</svg>
