<svg width="39" height="39" viewBox="0 0 39 39" fill="none" xmlns="http://www.w3.org/2000/svg">
<path d="M26.8215 17.0357C26.8215 14.2139 25.8186 11.8001 23.8128 9.79435C21.8071 7.78858 19.3933 6.7857 16.5715 6.7857C13.7497 6.7857 11.3359 7.78858 9.33015 9.79435C7.32438 11.8001 6.3215 14.2139 6.3215 17.0357C6.3215 19.8575 7.32438 22.2713 9.33015 24.2771C11.3359 26.2828 13.7497 27.2857 16.5715 27.2857C19.3933 27.2857 21.8071 26.2828 23.8128 24.2771C25.8186 22.2713 26.8215 19.8575 26.8215 17.0357ZM38.5358 36.0714C38.5358 36.8646 38.246 37.551 37.6664 38.1306C37.0867 38.7102 36.4004 39 35.6072 39C34.7835 39 34.0972 38.7102 33.5481 38.1306L25.7004 30.3058C22.9701 32.1972 19.9272 33.1428 16.5715 33.1428C14.3903 33.1428 12.3045 32.7196 10.314 31.873C8.32345 31.0265 6.60749 29.8825 5.16609 28.4411C3.72468 26.9997 2.58071 25.2837 1.73417 23.2932C0.887626 21.3027 0.464355 19.2169 0.464355 17.0357C0.464355 14.8545 0.887626 12.7687 1.73417 10.7782C2.58071 8.78765 3.72468 7.07169 5.16609 5.63029C6.60749 4.18888 8.32345 3.04491 10.314 2.19837C12.3045 1.35183 14.3903 0.928558 16.5715 0.928558C18.7527 0.928558 20.8385 1.35183 22.829 2.19837C24.8195 3.04491 26.5355 4.18888 27.9769 5.63029C29.4183 7.07169 30.5623 8.78765 31.4088 10.7782C32.2554 12.7687 32.6786 14.8545 32.6786 17.0357C32.6786 20.3914 31.733 23.4343 29.8416 26.1646L37.6892 34.0123C38.2536 34.5766 38.5358 35.263 38.5358 36.0714Z" fill="black"/>
</svg>
